<?xml version="1.0" encoding="UTF-8"?>
<svg version="1.1" xmlns="http://www.w3.org/2000/svg" width="256" height="256">
<path d="M0 0 C2.12142857 1.63051948 4.15376043 3.31537791 6.17578125 5.06640625 C6.96855469 5.66195312 7.76132813 6.2575 8.578125 6.87109375 C23.90415421 19.82331693 31.84305705 39.56835305 34.17578125 59.06640625 C35.54322533 80.49846253 29.40906551 101.02354015 16.17578125 118.06640625 C17.5889509 121.29143479 19.27329629 123.38296214 21.79931641 125.82177734 C22.53993317 126.54287689 23.28054993 127.26397644 24.04360962 128.00692749 C24.84261688 128.77678986 25.64162415 129.54665222 26.46484375 130.33984375 C28.14511058 131.98508563 29.82478003 133.63093779 31.50390625 135.27734375 C34.15536959 137.86680182 36.81109179 140.45135944 39.47753906 143.02539062 C42.04931701 145.51261437 44.60191948 148.01825374 47.15234375 150.52734375 C48.35692734 151.67606461 48.35692734 151.67606461 49.58584595 152.84799194 C55.03914753 158.24998769 55.03914753 158.24998769 55.74755859 162.48291016 C55.17578125 165.06640625 55.17578125 165.06640625 54.05078125 166.94140625 C51.28561219 168.60050769 49.35756629 168.38985841 46.17578125 168.06640625 C43.75260925 166.39167786 43.75260925 166.39167786 41.37963867 164.01489258 C40.03375923 162.68769951 40.03375923 162.68769951 38.66069031 161.33369446 C37.70025687 160.35588407 36.74045845 159.3774496 35.78125 158.3984375 C34.78433242 157.40048205 33.78637587 156.4035635 32.78742981 155.40763855 C30.69935094 153.31938047 28.62197365 151.22119484 26.55200195 149.11499023 C23.90131431 146.41892734 21.2290469 143.74557452 18.54885387 141.07887745 C16.48653579 139.02325015 14.43433745 136.95775967 12.38521767 134.88898277 C11.40350183 133.8995819 10.41909082 132.91284763 9.43193626 131.92887306 C8.05303747 130.55071797 6.6886529 129.15808708 5.32495117 127.76489258 C4.15629768 126.58241692 4.15629768 126.58241692 2.96403503 125.37605286 C0.99826284 122.83712962 0.41122766 121.24780857 0.17578125 118.06640625 C1.5966698 114.89030244 3.62075789 112.5561171 5.92578125 110.00390625 C13.29403235 101.51758719 17.47403543 91.88791506 20.17578125 81.06640625 C20.36914062 80.30199219 20.5625 79.53757812 20.76171875 78.75 C23.76135682 59.30894949 19.16403101 40.70171528 7.88671875 24.69921875 C-3.38877458 10.26511817 -20.04526836 1.17519516 -38.13671875 -1.40625 C-57.59919244 -3.29602144 -75.18759519 2.08719029 -90.48046875 14.1640625 C-104.93235153 26.50475156 -112.79354092 43.17450469 -114.63671875 61.94140625 C-115.59369168 80.44967 -109.30848668 97.88428442 -97.63671875 112.25390625 C-86.29641654 124.40242599 -70.2521406 133.25449735 -53.48144531 134.19824219 C-42.5796163 134.56165195 -42.5796163 134.56165195 -31.82421875 133.06640625 C-28.99556067 132.75038401 -26.71523814 132.83325953 -23.82421875 133.06640625 C-21.76171875 134.75390625 -21.76171875 134.75390625 -20.82421875 137.06640625 C-20.82421875 139.62890625 -20.82421875 139.62890625 -21.82421875 142.06640625 C-31.82813703 149.27065399 -48.13254938 148.07063312 -59.74169922 146.29516602 C-74.31522523 143.74294953 -86.13710158 138.04771944 -97.82421875 129.06640625 C-98.51128906 128.55207031 -99.19835937 128.03773438 -99.90625 127.5078125 C-114.81979108 115.62411046 -124.49535331 95.81377302 -126.82421875 77.06640625 C-128.49260914 51.11692477 -122.00764677 30.17542162 -105.22265625 10.15625 C-78.30738668 -18.94671389 -31.93183068 -21.86204175 0 0 Z " fill="#000000" transform="translate(163.82421875,50.93359375)"/>
</svg>
